<?xml version="1.0" encoding="UTF-8" standalone="no"?>
<svg
   width="0.255556in"
   height="0.255556in"
   viewBox="0 0 23 23"
   version="1.1"
   id="svg3"
   sodipodi:docname="heart_thing_filled.svg"
   inkscape:version="1.1.2 (0a00cf5339, 2022-02-04)"
   xmlns:inkscape="http://www.inkscape.org/namespaces/inkscape"
   xmlns:sodipodi="http://sodipodi.sourceforge.net/DTD/sodipodi-0.dtd"
   xmlns="http://www.w3.org/2000/svg"
   xmlns:svg="http://www.w3.org/2000/svg">
  <defs
     id="defs7" />
  <sodipodi:namedview
     id="namedview5"
     pagecolor="#ffffff"
     bordercolor="#666666"
     borderopacity="1.0"
     inkscape:pageshadow="2"
     inkscape:pageopacity="0.0"
     inkscape:pagecheckerboard="0"
     inkscape:document-units="in"
     showgrid="false"
     inkscape:zoom="35.502657"
     inkscape:cx="12.252604"
     inkscape:cy="12.252604"
     inkscape:window-width="2560"
     inkscape:window-height="1408"
     inkscape:window-x="0"
     inkscape:window-y="740"
     inkscape:window-maximized="1"
     inkscape:current-layer="svg3" />
  <path
     id="Chemin importé #1"
     fill="none"
     stroke="black"
     stroke-width="1"
     d="M 20.26,2.44            C 17.94,0.25 14.49,0.64 12.36,3.07              12.36,3.07 11.53,4.02 11.53,4.02              11.53,4.02 10.70,3.07 10.70,3.07              8.57,0.64 5.12,0.25 2.80,2.44              0.14,4.95 -0.00,9.46 2.38,12.18              2.38,12.18 10.57,21.55 10.57,21.55              11.10,22.15 11.96,22.15 12.49,21.55              12.49,21.55 20.68,12.18 20.68,12.18              23.06,9.46 22.92,4.95 20.26,2.44 Z" />
  <path
     style="fill:#ffffff;stroke-width:0.0281669"
     d="M 11.999102,22.846607 C 11.921643,22.809966 11.811891,22.737208 11.755209,22.684922 11.578193,22.521638 2.8564123,12.520794 2.6448547,12.23852 0.79197815,9.766294 0.8492557,6.0561647 2.7774811,3.6476934 3.8803813,2.2701037 5.3571457,1.5606917 6.9816486,1.6280841 c 0.7728112,0.03206 1.431941,0.2065043 2.1720679,0.5748561 0.8574865,0.4267602 1.3260415,0.836035 2.5084585,2.1910971 0.337951,0.3872949 0.624546,0.7041726 0.636879,0.7041726 0.01233,0 0.315503,-0.3358903 0.673712,-0.746423 0.358209,-0.4105326 0.748316,-0.8460705 0.866904,-0.967862 0.836482,-0.8590737 1.858943,-1.4274008 3.00414,-1.6698264 0.331262,-0.070125 0.422558,-0.077631 0.957674,-0.07874 0.668113,-0.00139 0.97098,0.043261 1.530415,0.2255995 1.915578,0.6243515 3.436619,2.5321176 3.849857,4.8286825 0.375846,2.0887619 -0.133125,4.2049655 -1.382422,5.7478475 -0.49662,0.613326 -8.985493,10.288564 -9.077428,10.346047 -0.239365,0.149664 -0.492968,0.171794 -0.722804,0.06307 z"
     id="path164"
     transform="scale(0.93749842)" />
  <path
     style="fill:#ffffff;stroke-width:0.0281669"
     d="M 11.966277,22.830378 C 11.803455,22.74823 11.709305,22.647471 10.457513,21.215715 4.2119165,14.072217 2.8169782,12.468818 2.6281494,12.216322 1.9555648,11.316962 1.5181787,10.208423 1.3477361,8.9711594 1.2822206,8.4955748 1.2824588,7.5661519 1.3482198,7.0839768 1.6523122,4.8542986 2.9078846,2.9629705 4.6475394,2.1140559 6.4198284,1.2492166 8.5082769,1.5310952 10.182336,2.8610894 c 0.323587,0.2570808 0.774153,0.7230576 1.486907,1.5377647 0.327593,0.3744522 0.606109,0.6873026 0.618924,0.6952229 0.01281,0.00792 0.301584,-0.3045026 0.641707,-0.6942724 0.340124,-0.38977 0.732484,-0.8281051 0.87191,-0.9740781 0.773421,-0.8097375 1.757848,-1.3969113 2.760356,-1.6464492 0.505304,-0.1257769 0.678835,-0.1456248 1.267511,-0.1449737 0.64311,7.114e-4 0.972124,0.050897 1.521013,0.2320035 1.86433,0.6151384 3.349789,2.4412231 3.804476,4.6768654 0.429165,2.1101519 -0.09036,4.3599565 -1.36396,5.9065995 -0.174607,0.212041 -4.195972,4.817189 -7.510559,8.60087 -1.655653,1.889967 -1.601825,1.838879 -1.957257,1.85766 -0.160177,0.0085 -0.20544,-0.0014 -0.357087,-0.07792 z"
     id="path240"
     transform="scale(0.93749842)" />
</svg>
